# xmcd CD database file
# Copyright (C) 1993-1998 Ti Kan
# 
# Track frame offsets:
#     150
#     14906
#     30249
#     56281
#     76310
#     97908
#     117765
#     130126
#     147110
#     164618
#     181215
#     199520
#     216709
#     235205
# 
# Disc length: 3353 seconds
# 
# Revision: 1
# Processed by: cddbd v1.4b41PL1 Copyright (c) Steve Scherf et al.
# Submitted via: DiscPlay 4.0.4
# 
DISCID=ba0d170e
DTITLE=Tim Maia - Pro Meu Grande Amor
DYEAR=1900
DGENRE=
TTITLE0=Estoria de Cantador
TTITLE1=Nana
TTITLE2=Pro Meu Grande Amor
TTITLE3=Pra Fazer Voce Sorrir
TTITLE4=Oceano
TTITLE5=Tudo Era Lindo (E Se Foi)
TTITLE6=Rio
TTITLE7=Por Causa de Voce
TTITLE8=Flor de Lis
TTITLE9=Rapaz de Bem
TTITLE10=Eu Confesso
TTITLE11=Ole, Ola
TTITLE12=Eu Sei Que Vou Te Amar
TTITLE13=A Felicidade
EXTD=
EXTT0=
EXTT1=
EXTT2=
EXTT3=
EXTT4=
EXTT5=
EXTT6=
EXTT7=
EXTT8=
EXTT9=
EXTT10=
EXTT11=
EXTT12=
EXTT13=
PLAYORDER=
